<?xml version="1.0" encoding="UTF-8"?>
<svg id="Layer_1" xmlns="http://www.w3.org/2000/svg" version="1.1" viewBox="0 0 375 75">
  <!-- Generator: Adobe Illustrator 29.1.0, SVG Export Plug-In . SVG Version: 2.1.0 Build 142)  -->
  <rect x="4.1" y="3.2" width=".9" height="70.5"/>
  <g>
    <path d="M104.5,27.2c1.4,0,2.6-.2,3.5-.5,1.7-.6,2.5-1.7,2.5-3.3s-.4-1.7-1.2-2.2c-.8-.5-2.1-1-3.9-1.3l-3-.7c-3-.7-5.1-1.4-6.2-2.2-1.9-1.3-2.9-3.4-2.9-6.2s.9-4.7,2.8-6.4c1.9-1.7,4.6-2.6,8.3-2.6s5.6.8,7.8,2.4c2.1,1.6,3.3,3.9,3.4,7h-5.8c-.1-1.7-.9-3-2.3-3.7-.9-.5-2.1-.7-3.5-.7s-2.8.3-3.7.9-1.4,1.5-1.4,2.6.5,1.8,1.4,2.3c.6.3,1.8.7,3.8,1.2l5,1.2c2.2.5,3.8,1.2,4.9,2.1,1.7,1.4,2.6,3.3,2.6,5.9s-1,4.8-3,6.6-4.9,2.6-8.5,2.6-6.7-.9-8.8-2.6c-2.1-1.7-3.2-4.1-3.2-7.1h5.7c.2,1.3.5,2.3,1.1,2.9,1,1.2,2.6,1.8,5,1.8Z"/>
    <path d="M138,12.8c1.8,2.3,2.7,4.9,2.7,8s-.9,5.8-2.7,8c-1.8,2.2-4.5,3.3-8.2,3.3s-6.4-1.1-8.2-3.3c-1.8-2.2-2.7-4.9-2.7-8s.9-5.7,2.7-8c1.8-2.3,4.5-3.4,8.2-3.4s6.4,1.1,8.2,3.4ZM129.8,14.1c-1.6,0-2.9.6-3.8,1.7s-1.3,2.8-1.3,4.9.4,3.8,1.3,4.9c.9,1.2,2.1,1.7,3.8,1.7s2.9-.6,3.8-1.7c.9-1.2,1.3-2.8,1.3-4.9s-.4-3.8-1.3-4.9-2.1-1.7-3.8-1.7Z"/>
    <path d="M158.4,28.4c0,0-.2.3-.4.6-.2.3-.5.6-.7.9-.9.8-1.7,1.3-2.5,1.6s-1.8.4-2.9.4c-3.2,0-5.3-1.1-6.4-3.4-.6-1.2-.9-3.1-.9-5.5v-12.8h5.7v12.8c0,1.2.1,2.1.4,2.7.5,1.1,1.5,1.6,3,1.6s3.2-.8,3.9-2.3c.4-.8.5-1.9.5-3.3v-11.6h5.6v21.3h-5.4v-3Z"/>
    <path d="M179.2,14.2c-1.9,0-3.2.8-3.9,2.4-.4.8-.5,1.9-.5,3.2v11.5h-5.5V10.1h5.4v3.1c.7-1.1,1.4-1.9,2-2.4,1.1-.9,2.6-1.3,4.4-1.3s4,.6,5.4,1.7,2.1,3.1,2.1,5.7v14.3h-5.7v-12.9c0-1.1-.1-2-.4-2.6-.5-1.1-1.6-1.6-3.1-1.6Z"/>
    <path d="M213,2.6v28.8h-5.4v-2.9c-.8,1.3-1.7,2.2-2.7,2.8s-2.3.9-3.8.9c-2.5,0-4.6-1-6.3-3s-2.5-4.6-2.5-7.7.8-6.5,2.5-8.6c1.7-2.1,3.9-3.1,6.7-3.1s2.4.3,3.4.8,1.8,1.4,2.4,2.4V2.6h5.6ZM198,20.9c0,2,.4,3.5,1.2,4.7.8,1.2,1.9,1.8,3.5,1.8s2.8-.6,3.6-1.8,1.2-2.7,1.2-4.6-.7-4.5-2-5.6c-.8-.7-1.7-1-2.8-1-1.6,0-2.8.6-3.6,1.8s-1.1,2.8-1.1,4.6Z"/>
    <path d="M240,27.2c1.4,0,2.6-.2,3.5-.5,1.7-.6,2.5-1.7,2.5-3.3s-.4-1.7-1.2-2.2c-.8-.5-2.1-1-3.9-1.3l-3-.7c-3-.7-5.1-1.4-6.2-2.2-1.9-1.3-2.9-3.4-2.9-6.2s.9-4.7,2.8-6.4c1.9-1.7,4.6-2.6,8.3-2.6s5.6.8,7.8,2.4c2.1,1.6,3.3,3.9,3.4,7h-5.8c-.1-1.7-.9-3-2.3-3.7-.9-.5-2.1-.7-3.5-.7s-2.8.3-3.7.9-1.4,1.5-1.4,2.6.5,1.8,1.4,2.3c.6.3,1.8.7,3.8,1.2l5,1.2c2.2.5,3.8,1.2,4.9,2.1,1.7,1.4,2.6,3.3,2.6,5.9s-1,4.8-3,6.6-4.9,2.6-8.5,2.6-6.7-.9-8.8-2.6c-2.1-1.7-3.2-4.1-3.2-7.1h5.7c.2,1.3.5,2.3,1.1,2.9,1,1.2,2.6,1.8,5,1.8Z"/>
    <path d="M265.6,27.4v4.2h-2.6c-2.6.2-4.4-.3-5.4-1.3-.6-.6-.9-1.6-.9-2.9v-13.1h-3v-4h3v-5.9h5.5v5.9h3.5v4h-3.5v11.2c0,.9.1,1.4.3,1.6s.9.3,2,.3.3,0,.5,0c.2,0,.4,0,.6,0Z"/>
    <path d="M282.8,28.4c0,0-.2.3-.4.6-.2.3-.5.6-.7.9-.9.8-1.7,1.3-2.5,1.6s-1.8.4-2.9.4c-3.2,0-5.3-1.1-6.4-3.4-.6-1.2-.9-3.1-.9-5.5v-12.8h5.7v12.8c0,1.2.1,2.1.4,2.7.5,1.1,1.5,1.6,3,1.6s3.2-.8,3.9-2.3c.4-.8.5-1.9.5-3.3v-11.6h5.6v21.3h-5.4v-3Z"/>
    <path d="M312.9,2.6v28.8h-5.4v-2.9c-.8,1.3-1.7,2.2-2.7,2.8s-2.3.9-3.8.9c-2.5,0-4.6-1-6.3-3s-2.5-4.6-2.5-7.7.8-6.5,2.5-8.6c1.7-2.1,3.9-3.1,6.7-3.1s2.4.3,3.4.8,1.8,1.4,2.4,2.4V2.6h5.6ZM297.9,20.9c0,2,.4,3.5,1.2,4.7.8,1.2,1.9,1.8,3.5,1.8s2.8-.6,3.6-1.8,1.2-2.7,1.2-4.6-.7-4.5-2-5.6c-.8-.7-1.7-1-2.8-1-1.6,0-2.8.6-3.6,1.8s-1.1,2.8-1.1,4.6Z"/>
    <path d="M323.7,2.4v5.1h-5.6V2.4h5.6ZM323.7,10.1v21.3h-5.6V10.1h5.6Z"/>
    <path d="M347.3,25.1c-.1,1.3-.8,2.5-2,3.8-1.8,2.1-4.4,3.1-7.7,3.1s-5.1-.9-7.2-2.6c-2.1-1.7-3.1-4.6-3.1-8.5s.9-6.5,2.8-8.5c1.9-2,4.3-2.9,7.3-2.9s3.4.3,4.8,1,2.6,1.7,3.5,3.1c.8,1.3,1.4,2.7,1.6,4.4.1,1,.2,2.4.2,4.2h-14.6c0,2.1.7,3.6,2,4.5.8.5,1.7.8,2.8.8s2.1-.3,2.8-1c.4-.4.7-.8,1-1.5h5.7ZM341.8,18.6c0-1.5-.5-2.6-1.3-3.3s-1.8-1.1-3-1.1-2.3.4-3,1.2c-.7.8-1.2,1.9-1.3,3.3h8.7Z"/>
    <path d="M366,11.1c1.7,1.1,2.6,2.9,2.9,5.5h-5.6c0-.7-.3-1.3-.6-1.7-.6-.8-1.7-1.1-3.1-1.1s-2.1.2-2.6.6c-.5.4-.8.8-.8,1.3s.3,1.1.8,1.4c.5.3,2.5.8,5.8,1.5,2.2.5,3.9,1.3,5,2.4,1.1,1.1,1.6,2.4,1.6,4s-.8,3.8-2.4,5.2-4,2-7.3,2-5.8-.7-7.4-2.1-2.4-3.2-2.4-5.4h5.6c.1,1,.4,1.7.8,2.1.7.7,2,1.1,3.8,1.1s2-.2,2.6-.5c.6-.3,1-.8,1-1.5s-.3-1.1-.8-1.4c-.5-.3-2.5-.9-5.8-1.7-2.4-.6-4.1-1.3-5.1-2.2-1-.9-1.5-2.2-1.5-3.8s.8-3.7,2.3-5.1c1.5-1.4,3.7-2.1,6.5-2.1s4.8.5,6.5,1.6Z"/>
    <path d="M111.7,64.7c-1.6,1-3.5,1.5-5.9,1.5-3.8,0-6.9-1.3-9.4-4-2.5-2.7-3.8-6.3-3.8-10.9s1.3-8.4,3.8-11.2,6-4.2,10.2-4.2,6.6.9,8.8,2.8,3.5,4.2,3.8,6.9h-5.9c-.5-2-1.6-3.3-3.3-4.1-1-.4-2.1-.6-3.3-.6-2.3,0-4.2.9-5.7,2.6-1.5,1.8-2.2,4.4-2.2,7.9s.8,6,2.4,7.5c1.6,1.5,3.5,2.2,5.5,2.2s3.7-.6,5-1.7c1.3-1.2,2.1-2.7,2.4-4.6h-6.7v-4.8h12v15.4h-4l-.6-3.6c-1.2,1.4-2.2,2.3-3.1,2.9Z"/>
    <path d="M135.4,49.2c-2.2,0-3.7.7-4.5,2.2-.4.8-.6,2.1-.6,3.8v10.2h-5.6v-21.3h5.3v3.7c.9-1.4,1.6-2.4,2.2-2.9,1-.9,2.4-1.3,4.1-1.3s.2,0,.3,0c0,0,.2,0,.5,0v5.7c-.4,0-.7,0-.9,0-.3,0-.5,0-.7,0Z"/>
    <path d="M158,46.8c1.8,2.3,2.7,4.9,2.7,8s-.9,5.8-2.7,8c-1.8,2.2-4.5,3.3-8.2,3.3s-6.4-1.1-8.2-3.3c-1.8-2.2-2.7-4.9-2.7-8s.9-5.7,2.7-8c1.8-2.3,4.5-3.4,8.2-3.4s6.4,1.1,8.2,3.4ZM149.8,48.1c-1.6,0-2.9.6-3.8,1.7s-1.3,2.8-1.3,4.9.4,3.8,1.3,4.9c.9,1.2,2.1,1.7,3.8,1.7s2.9-.6,3.8-1.7c.9-1.2,1.3-2.8,1.3-4.9s-.4-3.8-1.3-4.9-2.1-1.7-3.8-1.7Z"/>
    <path d="M178.4,62.4c0,0-.2.3-.4.6-.2.3-.5.6-.7.9-.9.8-1.7,1.3-2.5,1.6s-1.8.4-2.9.4c-3.2,0-5.3-1.1-6.4-3.4-.6-1.2-.9-3.1-.9-5.5v-12.8h5.7v12.8c0,1.2.1,2.1.4,2.7.5,1.1,1.5,1.6,3,1.6s3.2-.8,3.9-2.3c.4-.8.5-1.9.5-3.3v-11.6h5.6v21.3h-5.4v-3Z"/>
    <path d="M207,46.4c1.7,1.8,2.6,4.5,2.6,8.1s-.8,6.6-2.5,8.6c-1.7,2-3.9,2.9-6.5,2.9s-3.1-.4-4.2-1.3c-.6-.5-1.2-1.2-1.8-2.1v11.1h-5.5v-29.7h5.3v3.1c.6-.9,1.2-1.7,1.9-2.2,1.2-1,2.7-1.4,4.4-1.4,2.5,0,4.6.9,6.3,2.8ZM203.8,54.7c0-1.6-.4-3.1-1.1-4.4-.7-1.3-2-1.9-3.6-1.9s-3.4,1-4.2,2.9c-.4,1-.6,2.3-.6,3.9,0,2.5.7,4.2,2,5.2.8.6,1.7.9,2.8.9,1.5,0,2.7-.6,3.5-1.8.8-1.2,1.2-2.8,1.2-4.8Z"/>
  </g>
</svg>