<?xml version="1.0" standalone="no"?><?xml-stylesheet type="text/css" href="https://wps.processon.com/themes/default/wps/mind/icons/icons.css" ?><!DOCTYPE svg PUBLIC "-//W3C//DTD SVG 1.1//EN" "http://www.w3.org/Graphics/SVG/1.1/DTD/svg11.dtd"><svg id="SvgjsSvg1006" width="1501.5671886097302" height="848.78154928034" xmlns="http://www.w3.org/2000/svg" version="1.1" xmlns:xlink="http://www.w3.org/1999/xlink" xmlns:svgjs="http://svgjs.com/svgjs"><defs id="SvgjsDefs1007"><pattern patternUnits="userSpaceOnUse" id="pattern_mark_0" width="300" height="300"><text x="150" y="100" fill="rgba(229,229,229,0.8)" font-size="18" transform="rotate(-45, 150, 150)" style="dominant-baseline: middle; text-anchor: middle;"></text></pattern><pattern patternUnits="userSpaceOnUse" id="pattern_mark_1" width="300" height="300"><text x="150" y="200" fill="rgba(229,229,229,0.8)" font-size="18" transform="rotate(-45, 150, 150)" style="dominant-baseline: middle; text-anchor: middle;"></text></pattern><marker id="SvgjsMarker1137" markerWidth="14" markerHeight="10" refX="10" refY="5" viewBox="0 0 14 10" orient="auto" markerUnits="userSpaceOnUse" stroke-dasharray="0,0"><path id="SvgjsPath1138" d="M0,0 L14,5 L0,10 L0,0" fill="#323232" stroke="#323232" stroke-width="1"></path></marker><marker id="SvgjsMarker1141" markerWidth="14" markerHeight="10" refX="10" refY="5" viewBox="0 0 14 10" orient="auto" markerUnits="userSpaceOnUse" stroke-dasharray="0,0"><path id="SvgjsPath1142" d="M0,0 L14,5 L0,10 L0,0" fill="#323232" stroke="#323232" stroke-width="1"></path></marker><marker id="SvgjsMarker1185" markerWidth="14" markerHeight="10" refX="10" refY="5" viewBox="0 0 14 10" orient="auto" markerUnits="userSpaceOnUse" stroke-dasharray="0,0"><path id="SvgjsPath1186" d="M0,0 L14,5 L0,10 L0,0" fill="#323232" stroke="#323232" stroke-width="1"></path></marker><marker id="SvgjsMarker1189" markerWidth="14" markerHeight="10" refX="10" refY="5" viewBox="0 0 14 10" orient="auto" markerUnits="userSpaceOnUse" stroke-dasharray="0,0"><path id="SvgjsPath1190" d="M0,0 L14,5 L0,10 L0,0" fill="#323232" stroke="#323232" stroke-width="1"></path></marker><marker id="SvgjsMarker1193" markerWidth="14" markerHeight="10" refX="10" refY="5" viewBox="0 0 14 10" orient="auto" markerUnits="userSpaceOnUse" stroke-dasharray="0,0"><path id="SvgjsPath1194" d="M0,0 L14,5 L0,10 L0,0" fill="#323232" stroke="#323232" stroke-width="1"></path></marker><marker id="SvgjsMarker1197" markerWidth="14" markerHeight="10" refX="10" refY="5" viewBox="0 0 14 10" orient="auto" markerUnits="userSpaceOnUse" stroke-dasharray="0,0"><path id="SvgjsPath1198" d="M0,0 L14,5 L0,10 L0,0" fill="#323232" stroke="#323232" stroke-width="1"></path></marker><marker id="SvgjsMarker1201" markerWidth="14" markerHeight="10" refX="10" refY="5" viewBox="0 0 14 10" orient="auto" markerUnits="userSpaceOnUse" stroke-dasharray="0,0"><path id="SvgjsPath1202" d="M0,0 L14,5 L0,10 L0,0" fill="#323232" stroke="#323232" stroke-width="1"></path></marker><marker id="SvgjsMarker1205" markerWidth="14" markerHeight="10" refX="10" refY="5" viewBox="0 0 14 10" orient="auto" markerUnits="userSpaceOnUse" stroke-dasharray="0,0"><path id="SvgjsPath1206" d="M0,0 L14,5 L0,10 L0,0" fill="#323232" stroke="#323232" stroke-width="1"></path></marker><marker id="SvgjsMarker1209" markerWidth="14" markerHeight="10" refX="10" refY="5" viewBox="0 0 14 10" orient="auto" markerUnits="userSpaceOnUse" stroke-dasharray="0,0"><path id="SvgjsPath1210" d="M0,0 L14,5 L0,10 L0,0" fill="#323232" stroke="#323232" stroke-width="1"></path></marker><marker id="SvgjsMarker1213" markerWidth="14" markerHeight="10" refX="10" refY="5" viewBox="0 0 14 10" orient="auto" markerUnits="userSpaceOnUse" stroke-dasharray="0,0"><path id="SvgjsPath1214" d="M0,0 L14,5 L0,10 L0,0" fill="#323232" stroke="#323232" stroke-width="1"></path></marker><marker id="SvgjsMarker1217" markerWidth="14" markerHeight="10" refX="10" refY="5" viewBox="0 0 14 10" orient="auto" markerUnits="userSpaceOnUse" stroke-dasharray="0,0"><path id="SvgjsPath1218" d="M0,0 L14,5 L0,10 L0,0" fill="#323232" stroke="#323232" stroke-width="1"></path></marker><marker id="SvgjsMarker1221" markerWidth="14" markerHeight="10" refX="10" refY="5" viewBox="0 0 14 10" orient="auto" markerUnits="userSpaceOnUse" stroke-dasharray="0,0"><path id="SvgjsPath1222" d="M0,0 L14,5 L0,10 L0,0" fill="#323232" stroke="#323232" stroke-width="1"></path></marker><marker id="SvgjsMarker1225" markerWidth="14" markerHeight="10" refX="10" refY="5" viewBox="0 0 14 10" orient="auto" markerUnits="userSpaceOnUse" stroke-dasharray="0,0"><path id="SvgjsPath1226" d="M0,0 L14,5 L0,10 L0,0" fill="#323232" stroke="#323232" stroke-width="1"></path></marker><marker id="SvgjsMarker1229" markerWidth="14" markerHeight="10" refX="10" refY="5" viewBox="0 0 14 10" orient="auto" markerUnits="userSpaceOnUse" stroke-dasharray="0,0"><path id="SvgjsPath1230" d="M0,0 L14,5 L0,10 L0,0" fill="#323232" stroke="#323232" stroke-width="1"></path></marker><marker id="SvgjsMarker1233" markerWidth="14" markerHeight="10" refX="10" refY="5" viewBox="0 0 14 10" orient="auto" markerUnits="userSpaceOnUse" stroke-dasharray="0,0"><path id="SvgjsPath1234" d="M0,0 L14,5 L0,10 L0,0" fill="#323232" stroke="#323232" stroke-width="1"></path></marker><marker id="SvgjsMarker1237" markerWidth="14" markerHeight="10" refX="10" refY="5" viewBox="0 0 14 10" orient="auto" markerUnits="userSpaceOnUse" stroke-dasharray="0,0"><path id="SvgjsPath1238" d="M0,0 L14,5 L0,10 L0,0" fill="#323232" stroke="#323232" stroke-width="1"></path></marker><marker id="SvgjsMarker1241" markerWidth="14" markerHeight="10" refX="10" refY="5" viewBox="0 0 14 10" orient="auto" markerUnits="userSpaceOnUse" stroke-dasharray="0,0"><path id="SvgjsPath1242" d="M0,0 L14,5 L0,10 L0,0" fill="#323232" stroke="#323232" stroke-width="1"></path></marker><marker id="SvgjsMarker1245" markerWidth="14" markerHeight="10" refX="10" refY="5" viewBox="0 0 14 10" orient="auto" markerUnits="userSpaceOnUse" stroke-dasharray="0,0"><path id="SvgjsPath1246" d="M0,0 L14,5 L0,10 L0,0" fill="#323232" stroke="#323232" stroke-width="1"></path></marker></defs><rect id="svgbackgroundid" width="1501.5671886097302" height="848.78154928034" fill="rgb(255,255,255)"></rect><rect id="SvgjsRect1009" width="1501.5671886097302" height="848.78154928034" fill="url(#pattern_mark_0)"></rect><rect id="SvgjsRect1010" width="1501.5671886097302" height="848.78154928034" fill="url(#pattern_mark_1)"></rect><g id="SvgjsG1011" transform="translate(416.5419592809195,504.0094706933056)"><path id="SvgjsPath1012" d="M 0 4Q 0 0 4 0L 190.2592519124346 0Q 194.2592519124346 0 194.2592519124346 4L 194.2592519124346 211.60890040321874Q 194.2592519124346 215.60890040321874 190.2592519124346 215.60890040321874L 4 215.60890040321874Q 0 215.60890040321874 0 211.60890040321874Z" stroke-dasharray="10,6" stroke="rgba(245,124,0,1)" stroke-width="2" fill-opacity="1" fill="#ffffff"></path><g id="SvgjsG1013"><text id="SvgjsText1014" font-family="&quot;Lucida Console&quot;" text-anchor="middle" font-size="18px" width="175px" fill="#323232" font-weight="400" align="middle" lineHeight="125%" anchor="middle" family="&quot;Lucida Console&quot;" size="18px" weight="400" font-style="" opacity="1" y="92.05445020160937" transform="rotate(0)"><tspan id="SvgjsTspan1015" dy="22" x="97.5"><tspan id="SvgjsTspan1016" style="text-decoration:;"> </tspan></tspan></text></g></g><g id="SvgjsG1017" transform="translate(1284.0684148725054,167.16201044608383)"><path id="SvgjsPath1018" d="M 0 4Q 0 0 4 0L 188.275277516198 0Q 192.275277516198 0 192.275277516198 4L 192.275277516198 480Q 192.275277516198 484 188.275277516198 484L 4 484Q 0 484 0 480Z" stroke-dasharray="10,6" stroke="rgba(245,124,0,1)" stroke-width="2" fill-opacity="1" fill="#ffffff"></path><g id="SvgjsG1019"><text id="SvgjsText1020" font-family="&quot;Lucida Console&quot;" text-anchor="middle" font-size="18px" width="173px" fill="#323232" font-weight="400" align="middle" lineHeight="125%" anchor="middle" family="&quot;Lucida Console&quot;" size="18px" weight="400" font-style="" opacity="1" y="226.25" transform="rotate(0)"><tspan id="SvgjsTspan1021" dy="22" x="96.5"><tspan id="SvgjsTspan1022" style="text-decoration:;"> </tspan></tspan></text></g></g><g id="SvgjsG1023" transform="translate(837.6345352018718,234.16201044608377)"><path id="SvgjsPath1024" d="M 0 4Q 0 0 4 0L 192.38103376115487 0Q 196.38103376115487 0 196.38103376115487 4L 196.38103376115487 346Q 196.38103376115487 350 192.38103376115487 350L 4 350Q 0 350 0 346Z" stroke-dasharray="10,6" stroke="rgba(245,124,0,1)" stroke-width="2" fill-opacity="1" fill="#ffffff"></path><g id="SvgjsG1025"><text id="SvgjsText1026" font-family="&quot;Lucida Console&quot;" text-anchor="middle" font-size="18px" width="177px" fill="#323232" font-weight="400" align="middle" lineHeight="125%" anchor="middle" family="&quot;Lucida Console&quot;" size="18px" weight="400" font-style="" opacity="1" y="159.25" transform="rotate(0)"><tspan id="SvgjsTspan1027" dy="22" x="98.5"><tspan id="SvgjsTspan1028" style="text-decoration:;"> </tspan></tspan></text></g></g><g id="SvgjsG1029" transform="translate(416.48639270512723,25.006392656467447)"><path id="SvgjsPath1030" d="M 0 4Q 0 0 4 0L 190.37038506401916 0Q 194.37038506401916 0 194.37038506401916 4L 194.37038506401916 434.6119784400569Q 194.37038506401916 438.6119784400569 190.37038506401916 438.6119784400569L 4 438.6119784400569Q 0 438.6119784400569 0 434.6119784400569Z" stroke-dasharray="10,6" stroke="rgba(245,124,0,1)" stroke-width="2" fill-opacity="1" fill="#ffffff"></path><g id="SvgjsG1031"><text id="SvgjsText1032" font-family="&quot;Lucida Console&quot;" text-anchor="middle" font-size="18px" width="175px" fill="#323232" font-weight="400" align="middle" lineHeight="125%" anchor="middle" family="&quot;Lucida Console&quot;" size="18px" weight="400" font-style="" opacity="1" y="203.55598922002844" transform="rotate(0)"><tspan id="SvgjsTspan1033" dy="22" x="97.5"><tspan id="SvgjsTspan1034" style="text-decoration:;"> </tspan></tspan></text></g></g><g id="SvgjsG1035" transform="translate(25.004918570470316,255.6183710965243)"><path id="SvgjsPath1036" d="M 0 4Q 0 0 4 0L 189.59793502565395 0Q 193.59793502565395 0 193.59793502565395 4L 193.59793502565395 303.0872786991189Q 193.59793502565395 307.0872786991189 189.59793502565395 307.0872786991189L 4 307.0872786991189Q 0 307.0872786991189 0 303.0872786991189Z" stroke-dasharray="10,6" stroke="rgba(245,124,0,1)" stroke-width="2" fill-opacity="1" fill="#ffffff"></path><g id="SvgjsG1037"><text id="SvgjsText1038" font-family="&quot;Lucida Console&quot;" text-anchor="middle" font-size="18px" width="174px" fill="#323232" font-weight="400" align="middle" lineHeight="125%" anchor="middle" family="&quot;Lucida Console&quot;" size="18px" weight="400" font-style="" opacity="1" y="137.79363934955944" transform="rotate(0)"><tspan id="SvgjsTspan1039" dy="22" x="97"><tspan id="SvgjsTspan1040" style="text-decoration:;"> </tspan></tspan></text></g></g><g id="SvgjsG1041" transform="translate(53.899136894192736,311.23342757342084)"><path id="SvgjsPath1042" d="M 0 4Q 0 0 4 0L 131.80949837820913 0Q 135.80949837820913 0 135.80949837820913 4L 135.80949837820913 61.28572191510909Q 135.80949837820913 65.2857219151091 131.80949837820913 65.2857219151091L 4 65.2857219151091Q 0 65.2857219151091 0 61.28572191510909Z" stroke="rgba(33,41,48,1)" stroke-width="2" fill-opacity="1" fill="#ffffff"></path><g id="SvgjsG1043"><text id="SvgjsText1044" font-family="&quot;Lucida Console&quot;" text-anchor="middle" font-size="18px" width="116px" fill="#323232" font-weight="700" align="middle" lineHeight="125%" anchor="middle" family="&quot;Lucida Console&quot;" size="18px" weight="700" font-style="" opacity="1" y="5.8928609575545465" transform="rotate(0)"><tspan id="SvgjsTspan1045" dy="22" x="68"><tspan id="SvgjsTspan1046" style="text-decoration:;">Gesture</tspan></tspan><tspan id="SvgjsTspan1047" dy="22" x="68"><tspan id="SvgjsTspan1048" style="text-decoration:;">Input</tspan></tspan></text></g></g><g id="SvgjsG1049" transform="translate(56.840920859772964,754.0094706933056)"><path id="SvgjsPath1050" d="M 0 4Q 0 0 4 0L 125.92593044704861 0Q 129.92593044704861 0 129.92593044704861 4L 129.92593044704861 66.00000000000023Q 129.92593044704861 70.00000000000023 125.92593044704861 70.00000000000023L 4 70.00000000000023Q 0 70.00000000000023 0 66.00000000000023Z" stroke="none" fill-opacity="1" fill="#ffffff"></path><g id="SvgjsG1051"><text id="SvgjsText1052" font-family="&quot;Lucida Console&quot;" text-anchor="middle" font-size="20px" width="110px" fill="#323232" font-weight="700" align="middle" lineHeight="125%" anchor="middle" family="&quot;Lucida Console&quot;" size="20px" weight="700" font-style="" opacity="1" y="4.500000000000114" transform="rotate(0)"><tspan id="SvgjsTspan1053" dy="25" x="65"><tspan id="SvgjsTspan1054" style="text-decoration:;">Input</tspan></tspan><tspan id="SvgjsTspan1055" dy="25" x="65"><tspan id="SvgjsTspan1056" style="text-decoration:;">Module</tspan></tspan></text></g></g><g id="SvgjsG1057" transform="translate(53.89913689419272,434.23342757342084)"><path id="SvgjsPath1058" d="M 0 4Q 0 0 4 0L 131.80949837820913 0Q 135.80949837820913 0 135.80949837820913 4L 135.80949837820913 61.28572191510909Q 135.80949837820913 65.2857219151091 131.80949837820913 65.2857219151091L 4 65.2857219151091Q 0 65.2857219151091 0 61.28572191510909Z" stroke="rgba(33,41,48,1)" stroke-width="2" fill-opacity="1" fill="#ffffff"></path><g id="SvgjsG1059"><text id="SvgjsText1060" font-family="&quot;Lucida Console&quot;" text-anchor="middle" font-size="18px" width="116px" fill="#323232" font-weight="700" align="middle" lineHeight="125%" anchor="middle" family="&quot;Lucida Console&quot;" size="18px" weight="700" font-style="" opacity="1" y="5.8928609575545465" transform="rotate(0)"><tspan id="SvgjsTspan1061" dy="22" x="68"><tspan id="SvgjsTspan1062" style="text-decoration:;">Audio</tspan></tspan><tspan id="SvgjsTspan1063" dy="22" x="68"><tspan id="SvgjsTspan1064" style="text-decoration:;">Capture</tspan></tspan></text></g></g><g id="SvgjsG1065" transform="translate(448.7086200136126,754.0094706933056)"><path id="SvgjsPath1066" d="M 0 4Q 0 0 4 0L 125.92593044704861 0Q 129.92593044704861 0 129.92593044704861 4L 129.92593044704861 66.00000000000023Q 129.92593044704861 70.00000000000023 125.92593044704861 70.00000000000023L 4 70.00000000000023Q 0 70.00000000000023 0 66.00000000000023Z" stroke="none" fill-opacity="1" fill="#ffffff"></path><g id="SvgjsG1067"><text id="SvgjsText1068" font-family="&quot;Lucida Console&quot;" text-anchor="middle" font-size="20px" width="110px" fill="#323232" font-weight="700" align="middle" lineHeight="125%" anchor="middle" family="&quot;Lucida Console&quot;" size="20px" weight="700" font-style="" opacity="1" y="4.500000000000114" transform="rotate(0)"><tspan id="SvgjsTspan1069" dy="25" x="65"><tspan id="SvgjsTspan1070" style="text-decoration:;">Process</tspan></tspan><tspan id="SvgjsTspan1071" dy="25" x="65"><tspan id="SvgjsTspan1072" style="text-decoration:;">Module</tspan></tspan></text></g></g><g id="SvgjsG1073" transform="translate(870.862086858925,754.0094706933056)"><path id="SvgjsPath1074" d="M 0 4Q 0 0 4 0L 125.92593044704861 0Q 129.92593044704861 0 129.92593044704861 4L 129.92593044704861 66.00000000000023Q 129.92593044704861 70.00000000000023 125.92593044704861 70.00000000000023L 4 70.00000000000023Q 0 70.00000000000023 0 66.00000000000023Z" stroke="none" fill-opacity="1" fill="#ffffff"></path><g id="SvgjsG1075"><text id="SvgjsText1076" font-family="&quot;Lucida Console&quot;" text-anchor="middle" font-size="20px" width="110px" fill="#323232" font-weight="700" align="middle" lineHeight="125%" anchor="middle" family="&quot;Lucida Console&quot;" size="20px" weight="700" font-style="" opacity="1" y="4.500000000000114" transform="rotate(0)"><tspan id="SvgjsTspan1077" dy="25" x="65"><tspan id="SvgjsTspan1078" style="text-decoration:;">Function</tspan></tspan><tspan id="SvgjsTspan1079" dy="25" x="65"><tspan id="SvgjsTspan1080" style="text-decoration:;">Module</tspan></tspan></text></g></g><g id="SvgjsG1081" transform="translate(1315.24308840708,754.0094706933056)"><path id="SvgjsPath1082" d="M 0 4Q 0 0 4 0L 125.92593044704861 0Q 129.92593044704861 0 129.92593044704861 4L 129.92593044704861 66.00000000000023Q 129.92593044704861 70.00000000000023 125.92593044704861 70.00000000000023L 4 70.00000000000023Q 0 70.00000000000023 0 66.00000000000023Z" stroke="none" fill-opacity="1" fill="#ffffff"></path><g id="SvgjsG1083"><text id="SvgjsText1084" font-family="&quot;Lucida Console&quot;" text-anchor="middle" font-size="20px" width="110px" fill="#323232" font-weight="700" align="middle" lineHeight="125%" anchor="middle" family="&quot;Lucida Console&quot;" size="20px" weight="700" font-style="" opacity="1" y="4.500000000000114" transform="rotate(0)"><tspan id="SvgjsTspan1085" dy="25" x="65"><tspan id="SvgjsTspan1086" style="text-decoration:;">Output</tspan></tspan><tspan id="SvgjsTspan1087" dy="25" x="65"><tspan id="SvgjsTspan1088" style="text-decoration:;">Module</tspan></tspan></text></g></g><g id="SvgjsG1089" transform="translate(867.9203028933448,287.1620104460838)"><path id="SvgjsPath1090" d="M 0 4Q 0 0 4 0L 131.80949837820913 0Q 135.80949837820913 0 135.80949837820913 4L 135.80949837820913 61.28572191510909Q 135.80949837820913 65.2857219151091 131.80949837820913 65.2857219151091L 4 65.2857219151091Q 0 65.2857219151091 0 61.28572191510909Z" stroke="rgba(33,41,48,1)" stroke-width="2" fill-opacity="1" fill="#ffffff"></path><g id="SvgjsG1091"><text id="SvgjsText1092" font-family="&quot;Lucida Console&quot;" text-anchor="middle" font-size="18px" width="116px" fill="#323232" font-weight="700" align="middle" lineHeight="125%" anchor="middle" family="&quot;Lucida Console&quot;" size="18px" weight="700" font-style="" opacity="1" y="5.8928609575545465" transform="rotate(0)"><tspan id="SvgjsTspan1093" dy="22" x="68"><tspan id="SvgjsTspan1094" style="text-decoration:;">Phisical</tspan></tspan><tspan id="SvgjsTspan1095" dy="22" x="68"><tspan id="SvgjsTspan1096" style="text-decoration:;">Interface</tspan></tspan></text></g></g><g id="SvgjsG1097" transform="translate(445.7668360480323,156.6086655984188)"><path id="SvgjsPath1098" d="M 0 4Q 0 0 4 0L 131.80949837820913 0Q 135.80949837820913 0 135.80949837820913 4L 135.80949837820913 61.28572191510909Q 135.80949837820913 65.2857219151091 131.80949837820913 65.2857219151091L 4 65.2857219151091Q 0 65.2857219151091 0 61.28572191510909Z" stroke="rgba(33,41,48,1)" stroke-width="2" fill-opacity="1" fill="#ffffff"></path><g id="SvgjsG1099"><text id="SvgjsText1100" font-family="&quot;Lucida Console&quot;" text-anchor="middle" font-size="18px" width="116px" fill="#323232" font-weight="700" align="middle" lineHeight="125%" anchor="middle" family="&quot;Lucida Console&quot;" size="18px" weight="700" font-style="" opacity="1" y="5.8928609575545465" transform="rotate(0)"><tspan id="SvgjsTspan1101" dy="22" x="68"><tspan id="SvgjsTspan1102" style="text-decoration:;">Audio</tspan></tspan><tspan id="SvgjsTspan1103" dy="22" x="68"><tspan id="SvgjsTspan1104" style="text-decoration:;">Processing</tspan></tspan></text></g></g><g id="SvgjsG1105" transform="translate(445.7668360480322,260.58086111776)"><path id="SvgjsPath1106" d="M 0 4Q 0 0 4 0L 131.80949837820913 0Q 135.80949837820913 0 135.80949837820913 4L 135.80949837820913 61.28572191510909Q 135.80949837820913 65.2857219151091 131.80949837820913 65.2857219151091L 4 65.2857219151091Q 0 65.2857219151091 0 61.28572191510909Z" stroke="rgba(33,41,48,1)" stroke-width="2" fill-opacity="1" fill="#ffffff"></path><g id="SvgjsG1107"><text id="SvgjsText1108" font-family="&quot;Lucida Console&quot;" text-anchor="middle" font-size="18px" width="116px" fill="#323232" font-weight="700" align="middle" lineHeight="125%" anchor="middle" family="&quot;Lucida Console&quot;" size="18px" weight="700" font-style="" opacity="1" y="5.8928609575545465" transform="rotate(0)"><tspan id="SvgjsTspan1109" dy="22" x="68"><tspan id="SvgjsTspan1110" style="text-decoration:;">Audio</tspan></tspan><tspan id="SvgjsTspan1111" dy="22" x="68"><tspan id="SvgjsTspan1112" style="text-decoration:;">Analyse</tspan></tspan></text></g></g><g id="SvgjsG1113" transform="translate(445.7668360480323,532.4349488262493)"><path id="SvgjsPath1114" d="M 0 4Q 0 0 4 0L 131.80949837820913 0Q 135.80949837820913 0 135.80949837820913 4L 135.80949837820913 61.28572191510909Q 135.80949837820913 65.2857219151091 131.80949837820913 65.2857219151091L 4 65.2857219151091Q 0 65.2857219151091 0 61.28572191510909Z" stroke="rgba(33,41,48,1)" stroke-width="2" fill-opacity="1" fill="#ffffff"></path><g id="SvgjsG1115"><text id="SvgjsText1116" font-family="&quot;Lucida Console&quot;" text-anchor="middle" font-size="18px" width="116px" fill="#323232" font-weight="700" align="middle" lineHeight="125%" anchor="middle" family="&quot;Lucida Console&quot;" size="18px" weight="700" font-style="" opacity="1" y="5.8928609575545465" transform="rotate(0)"><tspan id="SvgjsTspan1117" dy="22" x="68"><tspan id="SvgjsTspan1118" style="text-decoration:;">Sound</tspan></tspan><tspan id="SvgjsTspan1119" dy="22" x="68"><tspan id="SvgjsTspan1120" style="text-decoration:;">Visualizer</tspan></tspan></text></g></g><g id="SvgjsG1121" transform="translate(445.7668360480324,625.8635049960311)"><path id="SvgjsPath1122" d="M 0 4Q 0 0 4 0L 131.80949837820913 0Q 135.80949837820913 0 135.80949837820913 4L 135.80949837820913 61.28572191510909Q 135.80949837820913 65.2857219151091 131.80949837820913 65.2857219151091L 4 65.2857219151091Q 0 65.2857219151091 0 61.28572191510909Z" stroke="rgba(33,41,48,1)" stroke-width="2" fill-opacity="1" fill="#ffffff"></path><g id="SvgjsG1123"><text id="SvgjsText1124" font-family="&quot;Lucida Console&quot;" text-anchor="middle" font-size="18px" width="116px" fill="#323232" font-weight="700" align="middle" lineHeight="125%" anchor="middle" family="&quot;Lucida Console&quot;" size="18px" weight="700" font-style="" opacity="1" y="16.892860957554547" transform="rotate(0)"><tspan id="SvgjsTspan1125" dy="22" x="68"><tspan id="SvgjsTspan1126" style="text-decoration:;">VR Render</tspan></tspan></text></g></g><g id="SvgjsG1127" transform="translate(445.7668360480322,363.94770565831175)"><path id="SvgjsPath1128" d="M 0 4Q 0 0 4 0L 131.80949837820913 0Q 135.80949837820913 0 135.80949837820913 4L 135.80949837820913 61.28572191510909Q 135.80949837820913 65.2857219151091 131.80949837820913 65.2857219151091L 4 65.2857219151091Q 0 65.2857219151091 0 61.28572191510909Z" stroke="rgba(33,41,48,1)" stroke-width="2" fill-opacity="1" fill="#ffffff"></path><g id="SvgjsG1129"><text id="SvgjsText1130" font-family="&quot;Lucida Console&quot;" text-anchor="middle" font-size="18px" width="116px" fill="#323232" font-weight="700" align="middle" lineHeight="125%" anchor="middle" family="&quot;Lucida Console&quot;" size="18px" weight="700" font-style="" opacity="1" y="5.8928609575545465" transform="rotate(0)"><tspan id="SvgjsTspan1131" dy="22" x="68"><tspan id="SvgjsTspan1132" style="text-decoration:;">Spatial</tspan></tspan><tspan id="SvgjsTspan1133" dy="22" x="68"><tspan id="SvgjsTspan1134" style="text-decoration:;">Audio</tspan></tspan></text></g></g><g id="SvgjsG1135"><path id="SvgjsPath1136" d="M190.70589688648388 343.9502430648363C 321.26418235085225 360.6183710965243 326.1176025693148 189.25152655597336 442.1728793694676 189.46003409204795" stroke="#323232" stroke-width="2" fill="none" marker-end="url(#SvgjsMarker1137)"></path></g><g id="SvgjsG1139"><path id="SvgjsPath1140" d="M190.70712892602708 466.8214212030818C 313.46388794223606 466.8762885309754 322.01158337819794 293.22372207531447 442.17225889498144 293.42124445573137" stroke="#323232" stroke-width="2" fill="none" marker-end="url(#SvgjsMarker1141)"></path></g><g id="SvgjsG1143" transform="translate(445.76683604803225,52.63647007907761)"><path id="SvgjsPath1144" d="M 0 4Q 0 0 4 0L 131.80949837820913 0Q 135.80949837820913 0 135.80949837820913 4L 135.80949837820913 61.28572191510909Q 135.80949837820913 65.2857219151091 131.80949837820913 65.2857219151091L 4 65.2857219151091Q 0 65.2857219151091 0 61.28572191510909Z" stroke="rgba(33,41,48,1)" stroke-width="2" fill-opacity="1" fill="#ffffff"></path><g id="SvgjsG1145"><text id="SvgjsText1146" font-family="&quot;Lucida Console&quot;" text-anchor="middle" font-size="18px" width="116px" fill="#323232" font-weight="700" align="middle" lineHeight="125%" anchor="middle" family="&quot;Lucida Console&quot;" size="18px" weight="700" font-style="" opacity="1" y="5.8928609575545465" transform="rotate(0)"><tspan id="SvgjsTspan1147" dy="22" x="68"><tspan id="SvgjsTspan1148" style="text-decoration:;">Music</tspan></tspan><tspan id="SvgjsTspan1149" dy="22" x="68"><tspan id="SvgjsTspan1150" style="text-decoration:;">Generation</tspan></tspan></text></g></g><g id="SvgjsG1151" transform="translate(867.9203028933448,461.0627888380894)"><path id="SvgjsPath1152" d="M 0 4Q 0 0 4 0L 131.80949837820913 0Q 135.80949837820913 0 135.80949837820913 4L 135.80949837820913 61.28572191510909Q 135.80949837820913 65.2857219151091 131.80949837820913 65.2857219151091L 4 65.2857219151091Q 0 65.2857219151091 0 61.28572191510909Z" stroke="rgba(33,41,48,1)" stroke-width="2" fill-opacity="1" fill="#ffffff"></path><g id="SvgjsG1153"><text id="SvgjsText1154" font-family="&quot;Lucida Console&quot;" text-anchor="middle" font-size="18px" width="116px" fill="#323232" font-weight="700" align="middle" lineHeight="125%" anchor="middle" family="&quot;Lucida Console&quot;" size="18px" weight="700" font-style="" opacity="1" y="5.8928609575545465" transform="rotate(0)"><tspan id="SvgjsTspan1155" dy="22" x="68"><tspan id="SvgjsTspan1156" style="text-decoration:;">Virtual</tspan></tspan><tspan id="SvgjsTspan1157" dy="22" x="68"><tspan id="SvgjsTspan1158" style="text-decoration:;">Interface</tspan></tspan></text></g></g><g id="SvgjsG1159" transform="translate(1312.3013044414997,526.3485107531985)"><path id="SvgjsPath1160" d="M 21.761907305036402 0L 114.04759107317295 0C 143.06346747988815 0 143.06346747988815 65.2857219151092 114.04759107317295 65.2857219151092L 21.761907305036402 65.2857219151092C -7.253969101678801 65.2857219151092 -7.253969101678801 0 21.761907305036402 0Z" stroke="rgba(33,41,48,1)" stroke-width="2" fill-opacity="1" fill="#ffffff"></path><g id="SvgjsG1161"><text id="SvgjsText1162" font-family="&quot;Lucida Console&quot;" text-anchor="middle" font-size="18px" width="116px" fill="#323232" font-weight="700" align="middle" lineHeight="125%" anchor="middle" family="&quot;Lucida Console&quot;" size="18px" weight="700" font-style="" opacity="1" y="5.892860957554603" transform="rotate(0)"><tspan id="SvgjsTspan1163" dy="22" x="68"><tspan id="SvgjsTspan1164" style="text-decoration:;">VR</tspan></tspan><tspan id="SvgjsTspan1165" dy="22" x="68"><tspan id="SvgjsTspan1166" style="text-decoration:;">Interface</tspan></tspan></text></g></g><g id="SvgjsG1167" transform="translate(1312.3013044414997,395.7770669229803)"><path id="SvgjsPath1168" d="M 21.761907305036402 0L 114.04759107317295 0C 143.06346747988815 0 143.06346747988815 65.2857219151092 114.04759107317295 65.2857219151092L 21.761907305036402 65.2857219151092C -7.253969101678801 65.2857219151092 -7.253969101678801 0 21.761907305036402 0Z" stroke="rgba(33,41,48,1)" stroke-width="2" fill-opacity="1" fill="#ffffff"></path><g id="SvgjsG1169"><text id="SvgjsText1170" font-family="&quot;Lucida Console&quot;" text-anchor="middle" font-size="18px" width="116px" fill="#323232" font-weight="700" align="middle" lineHeight="125%" anchor="middle" family="&quot;Lucida Console&quot;" size="18px" weight="700" font-style="" opacity="1" y="5.892860957554603" transform="rotate(0)"><tspan id="SvgjsTspan1171" dy="22" x="68"><tspan id="SvgjsTspan1172" style="text-decoration:;">Visualize</tspan></tspan><tspan id="SvgjsTspan1173" dy="22" x="68"><tspan id="SvgjsTspan1174" style="text-decoration:;font-size: inherit;">Interface</tspan></tspan></text></g></g><g id="SvgjsG1175" transform="translate(1312.3013044414997,221.87628853097462)"><path id="SvgjsPath1176" d="M 21.761907305036402 0L 114.04759107317295 0C 143.06346747988815 0 143.06346747988815 65.2857219151092 114.04759107317295 65.2857219151092L 21.761907305036402 65.2857219151092C -7.253969101678801 65.2857219151092 -7.253969101678801 0 21.761907305036402 0Z" stroke="rgba(33,41,48,1)" stroke-width="2" fill-opacity="1" fill="#ffffff"></path><g id="SvgjsG1177"><text id="SvgjsText1178" font-family="&quot;Lucida Console&quot;" text-anchor="middle" font-size="18px" width="116px" fill="#323232" font-weight="700" align="middle" lineHeight="125%" anchor="middle" family="&quot;Lucida Console&quot;" size="18px" weight="700" font-style="" opacity="1" y="5.892860957554603" transform="rotate(0)"><tspan id="SvgjsTspan1179" dy="22" x="68"><tspan id="SvgjsTspan1180" style="text-decoration:;">Sound</tspan></tspan><tspan id="SvgjsTspan1181" dy="22" x="68"><tspan id="SvgjsTspan1182" style="text-decoration:;">Output</tspan></tspan></text></g></g><g id="SvgjsG1183"><path id="SvgjsPath1184" d="M1004.7296679229519 319.78854108146686C 1129.8907131607991 319.8048714036383 1186.6204729110138 265.51479746995824 1308.7199958555927 254.8855219936499" stroke="#323232" stroke-width="2" fill="none" marker-end="url(#SvgjsMarker1185)"></path></g><g id="SvgjsG1187"><path id="SvgjsPath1188" d="M1004.7287950701398 493.66080126849823C 1159.8971753278404 493.705649795644 1156.728194391717 268.1300329673562 1308.7325198701237 254.99219989082064" stroke="#323232" stroke-width="2" fill="none" marker-end="url(#SvgjsMarker1189)"></path></g><g id="SvgjsG1191"><path id="SvgjsPath1192" d="M1004.7292389376221 319.83840275679177C 1134.5815360324134 319.8048714036383 1181.9475000366242 439.8244080134371 1308.7062681696752 428.60890990154985" stroke="#323232" stroke-width="2" fill="none" marker-end="url(#SvgjsMarker1193)"></path></g><g id="SvgjsG1195"><path id="SvgjsPath1196" d="M1004.7295404252566 493.72848889706967C 1129.8907131607991 493.705649795644 1186.6204729110138 569.9870196921821 1308.708422212487 559.2176398889062" stroke="#323232" stroke-width="2" fill="none" marker-end="url(#SvgjsMarker1197)"></path></g><g id="SvgjsG1199"><path id="SvgjsPath1200" d="M582.5749609940355 565.0254172452479C 732.3883671446583 565.0778097838039 717.1082701749281 319.8048714036383 864.325247249287 319.99348454244" stroke="#323232" stroke-width="2" fill="none" marker-end="url(#SvgjsMarker1201)"></path></g><g id="SvgjsG1203"><path id="SvgjsPath1204" d="M582.5752989570177 658.4608701707998C 713.7290608142566 658.5063659535857 735.7675765053298 493.705649795644 864.3240305825509 493.86943461367326" stroke="#323232" stroke-width="2" fill="none" marker-end="url(#SvgjsMarker1205)"></path></g><g id="SvgjsG1207"><path id="SvgjsPath1208" d="M582.5762886116358 293.23329428050084C 696.6063658282047 293.2237220753145 752.8902714913814 319.8048714036383 864.3204678259248 319.7704114649676" stroke="#323232" stroke-width="2" fill="none" marker-end="url(#SvgjsMarker1209)"></path></g><g id="SvgjsG1211"><path id="SvgjsPath1212" d="M582.5755509086636 189.29110459604524C 707.4569407980906 189.25152655597336 742.0396965214956 319.8048714036383 864.3231235566251 319.6623904593794" stroke="#323232" stroke-width="2" fill="none" marker-end="url(#SvgjsMarker1213)"></path></g><g id="SvgjsG1215"><path id="SvgjsPath1216" d="M582.575829145981 396.6223519145553C 702.5220793921588 396.59056661586635 746.9745579274273 493.705649795644 864.3221219022824 493.59122272036376" stroke="#323232" stroke-width="2" fill="none" marker-end="url(#SvgjsMarker1217)"></path></g><g id="SvgjsG1219"><path id="SvgjsPath1220" d="M582.5749848441359 85.33126698602302C 729.6277294818373 85.27933103663213 719.8689078377489 319.8048714036383 864.3251613889246 319.61790198583117" stroke="#323232" stroke-width="2" fill="none" marker-end="url(#SvgjsMarker1221)"></path></g><g id="SvgjsG1223"><path id="SvgjsPath1224" d="M190.70685926861532 343.81671627750364C 335.2768673066114 343.8762885309754 300.19860401382266 85.27933103663216 442.1732296616639 85.49379114913037" stroke="#323232" stroke-width="2" fill="none" marker-end="url(#SvgjsMarker1225)"></path></g><g id="SvgjsG1227"><path id="SvgjsPath1228" d="M190.70837098969633 343.8992775623978C 294.2798338299123 343.8762885309754 341.19563749052173 396.59056661586635 442.16778746577216 396.50780610274575" stroke="#323232" stroke-width="2" fill="none" marker-end="url(#SvgjsMarker1229)"></path></g><g id="SvgjsG1231"><path id="SvgjsPath1232" d="M190.70787035952154 466.91539403786334C 299.40592126313015 466.8762885309754 336.06955005730396 565.0778097838039 442.16958973440154 564.9370299590074" stroke="#323232" stroke-width="2" fill="none" marker-end="url(#SvgjsMarker1233)"></path></g><g id="SvgjsG1235"><path id="SvgjsPath1236" d="M190.70692000704597 343.9348341420546C 351.9715763542944 343.8762885309754 283.50389496613985 658.5063659535857 442.1730110033138 658.2956017537006" stroke="#323232" stroke-width="2" fill="none" marker-end="url(#SvgjsMarker1237)"></path></g><g id="SvgjsG1239"><path id="SvgjsPath1240" d="M190.66745211386146 466.5922634184704C 327.26418235085225 432.6183710965243 310.26418235085225 235.61837109652433 442.41332141375517 190.56070171525838" stroke="#323232" stroke-width="2" fill="none" marker-end="url(#SvgjsMarker1241)"></path></g><g id="SvgjsG1243"><path id="SvgjsPath1244" d="M582.5421989529135 85.53837874674821C 735.2641823508523 117.61837109652433 685.2641823508523 470.6183710965243 864.3738491027971 493.08705015814877" stroke="#323232" stroke-width="2" fill="none" marker-end="url(#SvgjsMarker1245)"></path></g><g id="normal_brand" transform="translate(565.7835943048651,479.39077464017)"><text id="SvgjsText1248" font-family="Helvetica, Arial, sans-serif" style="transform:rotate(-30deg);opacity: 0.06; color:#000; font-family: Microsoft Yahei;"><tspan id="SvgjsTspan1249" font-size="72" dy="0" x="0"></tspan></text></g></svg>